# xmcd
#
# Track frame offsets:
#	182
#	18427
#	40655
#	61955
#	79842
#	98347
#	118420
#	139847
#	159325
#	178035
#	199037
#
# Disc length: 3004 seconds
#
# Revision: 7
# Processed by: cddbd v1.5.2PL0 Copyright (c) Steve Scherf et al.
# Submitted via: audiograbber 1.83.01
#
DISCID=890bba0b
DTITLE=Cray Band feat. The Memphis Horns, The Robert - Midnight stroll
DYEAR=1990
DGENRE=Blues
TTITLE0=The forecast (calls for pain)
TTITLE1=These things
TTITLE2=My problem
TTITLE3=Labor of love
TTITLE4=Bouncin' back
TTITLE5=Consequences
TTITLE6=The things you do to me
TTITLE7=Walk around time
TTITLE8=Move a mountain
TTITLE9=Holdin' court
TTITLE10=Midnight stroll
EXTD=
EXTT0=
EXTT1=
EXTT2=
EXTT3=
EXTT4=
EXTT5=
EXTT6=
EXTT7=
EXTT8=
EXTT9=
EXTT10=
PLAYORDER=
